<svg width="400" height="400" viewBox="0 0 400 400" fill="none" xmlns="http://www.w3.org/2000/svg">
  <rect width="400" height="400" rx="76" fill="#101826"/>
  <path d="M133 88C180 88 218 116 236 164C254 213 244 269 208 304C179 331 136 334 110 309C84 284 87 243 114 217C130 201 150 193 171 192C157 175 138 161 116 152C104 147 97 134 100 121C103 101 116 88 133 88Z" fill="#FACC15"/>
  <path d="M226 104C244 92 268 97 280 115C288 127 292 141 292 156C274 149 258 142 244 132C234 125 228 115 226 104Z" fill="#86EFAC"/>
  <path d="M118 236C131 250 152 256 171 253C166 273 153 291 136 304C124 313 109 316 97 311C84 305 76 291 76 273C76 249 93 232 118 236Z" fill="#FDE68A"/>
  <path d="M188 120C221 132 247 157 260 191" stroke="#111827" stroke-width="16" stroke-linecap="round"/>
  <path d="M112 348H288" stroke="#FACC15" stroke-width="18" stroke-linecap="round"/>
</svg>
